<svg xmlns="http://www.w3.org/2000/svg" xmlns:xlink="http://www.w3.org/1999/xlink" width="500" zoomAndPan="magnify" viewBox="0 0 375 374.999991" height="500" preserveAspectRatio="xMidYMid meet" version="1.0"><defs><clipPath id="ccdd555684"><path d="M 130.160156 46.242188 L 297 46.242188 L 297 329.367188 L 130.160156 329.367188 Z M 130.160156 46.242188 " clip-rule="nonzero"/></clipPath></defs><path fill="#3b88c3" d="M 187.5 0 C 83.949219 0 0 83.949219 0 187.5 C 0 291.050781 83.949219 375 187.5 375 C 291.050781 375 375 291.050781 375 187.5 C 375 83.949219 291.050781 0 187.5 0 Z M 21.355469 197.917969 L 62.84375 197.917969 C 63.800781 224.019531 68.28125 248.65625 75.644531 270.832031 L 43.3125 270.832031 C 30.738281 249.136719 23 224.386719 21.355469 197.917969 Z M 197.917969 83.332031 L 197.917969 21.675781 C 226.53125 26.21875 251.6875 49.332031 268.738281 83.332031 Z M 277.613281 104.167969 C 285.46875 125.863281 290.3125 150.625 291.332031 177.082031 L 197.917969 177.082031 L 197.917969 104.167969 Z M 177.082031 21.675781 L 177.082031 83.332031 L 106.261719 83.332031 C 123.300781 49.332031 148.46875 26.21875 177.082031 21.675781 Z M 177.082031 104.167969 L 177.082031 177.082031 L 83.667969 177.082031 C 84.6875 150.625 89.53125 125.863281 97.386719 104.167969 Z M 62.855469 177.082031 L 21.355469 177.082031 C 23 150.625 30.738281 125.863281 43.300781 104.167969 L 75.636719 104.167969 C 68.292969 126.34375 63.8125 150.988281 62.855469 177.082031 Z M 83.667969 197.917969 L 177.082031 197.917969 L 177.082031 270.832031 L 97.386719 270.832031 C 89.53125 249.136719 84.6875 224.386719 83.667969 197.917969 Z M 177.082031 291.667969 L 177.082031 353.324219 C 148.46875 348.769531 123.300781 325.667969 106.261719 291.667969 Z M 197.917969 353.324219 L 197.917969 291.667969 L 268.75 291.667969 C 251.699219 325.667969 226.53125 348.769531 197.917969 353.324219 Z M 197.917969 270.832031 L 197.917969 197.917969 L 291.34375 197.917969 C 290.3125 224.386719 285.480469 249.136719 277.625 270.832031 Z M 312.15625 197.917969 L 353.636719 197.917969 C 352 224.386719 344.261719 249.136719 331.6875 270.832031 L 299.355469 270.832031 C 306.707031 248.65625 311.1875 224.019531 312.15625 197.917969 Z M 312.15625 177.082031 C 311.1875 150.988281 306.707031 126.34375 299.355469 104.167969 L 331.6875 104.167969 C 344.261719 125.863281 352 150.625 353.636719 177.082031 Z M 317.488281 83.332031 L 291.417969 83.332031 C 283.949219 66.625 274.6875 51.925781 264.136719 39.59375 C 284.855469 50.34375 303.011719 65.28125 317.488281 83.332031 Z M 110.863281 39.59375 C 100.300781 51.925781 91.042969 66.625 83.574219 83.332031 L 57.511719 83.332031 C 71.988281 65.28125 90.144531 50.355469 110.863281 39.59375 Z M 57.511719 291.667969 L 83.582031 291.667969 C 91.042969 308.375 100.300781 323.074219 110.863281 335.394531 C 90.144531 324.644531 71.988281 309.71875 57.511719 291.667969 Z M 264.136719 335.394531 C 274.699219 323.0625 283.949219 308.375 291.417969 291.667969 L 317.488281 291.667969 C 303.011719 309.71875 284.855469 324.644531 264.136719 335.394531 Z M 264.136719 335.394531 " fill-opacity="1" fill-rule="nonzero"/><g clip-path="url(#ccdd555684)"><path fill="#ff3131" d="M 130.296875 46.257812 L 130.296875 329.367188 L 296.902344 187.8125 Z M 130.296875 46.257812 " fill-opacity="1" fill-rule="nonzero"/></g></svg>